{"scene":0,"asset":{"generator":"ImageToStl.com","version":"2.0"},"scenes":[{"name":"Scene","nodes":[0]}],"nodes":[{"name":"Node0","children":[1]},{"name":"Node1","mesh":0}],"materials":[{"name":"#A0A0A0FF","pbrMetallicRoughness":{"baseColorFactor":[0.627451,0.627451,0.627451,1.0],"metallicFactor":0.0,"roughnessFactor":1.0},"doubleSided":true},{"name":"#D0C8C0FF","pbrMetallicRoughness":{"baseColorFactor":[0.8156863,0.78431374,0.7529412,1.0],"metallicFactor":0.0,"roughnessFactor":1.0},"doubleSided":true}],"meshes":[{"name":"Mesh0","primitives":[{"indices":2,"material":1,"attributes":{"POSITION":0,"NORMAL":1}}]}],"accessors":[{"bufferView":0,"componentType":5126,"count":91482,"type":"VEC3","min":[-69.78951,-74.03189,-5.0],"max":[69.788605,65.074615,64.78014]},{"bufferView":1,"componentType":5126,"count":91482,"type":"VEC3"},{"bufferView":2,"componentType":5125,"count":102786,"type":"SCALAR"}],"bufferViews":[{"target":34962,"buffer":0,"byteLength":1097784,"byteOffset":0},{"target":34962,"buffer":0,"byteLength":1097784,"byteOffset":1097784},{"target":34963,"buffer":0,"byteLength":411144,"byteOffset":2195568}],"buffers":[{"byteLength":2606712,"uri":"data:application/octet-stream;base64,"}]}